Love for All and Sharing is the first step to solving all the problems of humanity.

Website I want to share. 
               
   http://www.scenetime.com
 
 
  Credit to EVERYONE for sharing and seeding back
 especially to SCENETIME.COM where i get all my 
 downloads.


 support www.scenetime.com to grow faster.

                             
                                                            
                                                   

.                 ..................................NFO:....................................[img]http://leetleech.org/images/86705012011995631333.jpeg[/img]

[b]Crush (2009) DVDRip XviD-SKITTLES[/b]

[img]http://leetleech.org/images/39185456263711143641.png[/img]

Video
ID                               : 0
Format                           : MPEG-4 Visual
Format profile                   : Advanced Simple@L5
Format settings, BVOP            : Yes
Format settings, QPel            : No
Format settings, GMC             : No warppoints
Format settings, Matrix          : Default (H.263)
Muxing mode                      : Packed bitstream
Codec ID                         : XVID
Codec ID/Hint                    : XviD
Duration                         : 1h 20mn
Bit rate                         : 1 088 Kbps
Width                            : 640 pixels
Height                           : 352 pixels
Display aspect ratio             : 16:9
Frame rate                       : 23.976 fps
Color space                      : YUV
Chroma subsampling               : 4:2:0
Bit depth                        : 8 bits
Scan type                        : Progressive
Bits/(Pixel*Frame)               : 0.201
Stream size                      : 625 MiB (89%)
Writing library                  : XviD 1.2.1 (UTC 2008-12-04)

Audio
ID                               : 1
Format                           : MPEG Audio
Format version                   : Version 1
Format profile                   : Layer 3
Mode                             : Joint stereo
Mode extension                   : MS Stereo
Codec ID                         : 55
Codec ID/Hint                    : MP3
Duration                         : 1h 20mn
Bit rate mode                    : Constant
Bit rate                         : 128 Kbps
Channel(s)                       : 2 channels
Sampling rate                    : 48.0 KHz
Stream size                      : 73.6 MiB (10%)
Alignment                        : Aligned on interleaves
Interleave, duration             : 42 ms (1.00 video frame)
Interleave, preload duration     : 504 ms 
http://www.imdb.com/title/tt1170350/

[img]http://leetleech.org/images/46941880339015444838.png[/img]

Christopher Egan... 	Julian
Emma Lung	... 	Anna
Brooke Harmon	... 	Clare
Christian Clark	... 	Wesley
Jenna Lind	... 	Logan
Kane Manera	... 	Phil
Elwyn Edwards	... 	Professor
Luke Hewitt	 ... 	Ralph
Kerry-Ella McAullay... 	Samantha
Gemma Pranita	... 	Nurse Anna
Helen Searle	... 	Kelly
Ian Toyne	... 	Harry

[img]http://leetleech.org/images/70187465700988366433.png[/img]

Genre:
Horror | Mystery | Thriller 

Plot: 
A university student is stalked by an obsessed girl who has 
supernatural powers.  

[img]http://leetleech.org/images/64476088802225496360.png[/img]

[img]http://leetleech.org/images/84186869361723967286.png[/img]
[img]http://leetleech.org/images/31445032070815739584.png[/img]
[img]http://leetleech.org/images/29305751973787121067.png[/img]
[img]http://leetleech.org/images/35341474486095971123.png[/img]
[img]http://leetleech.org/images/04779016539416878372.png[/img]
[img]http://leetleech.org/images/59026215417902865227.png[/img]